<svg version="1.1" xmlns="http://www.w3.org/2000/svg" xmlns:xlink="http://www.w3.org/1999/xlink" x="0px" y="0px" viewBox="0 0 256 256" enable-background="new 0 0 256 256" xml:space="preserve">
<g><g><g><path fill="#ffffff" d="M115.4,64.5c-31.1,3.2-61.8,20.3-80.8,44.9C18.9,129.8,10.1,154.3,10,178c-0.1,8.5,0.3,9.6,4.2,12.5c1.7,1.3,2.3,1.3,51,1.5l49.4,0.1l-1.5-2c-3.6-4.7-4.5-7.3-4.5-12.8c0.1-6.2,1.5-9.9,5.5-13.9c3.9-3.9,7.7-5.5,13.6-5.5c4.3,0,5.5,0.2,8.7,1.8l3.7,1.7l27.5-11.8c16-6.8,28.2-11.8,29.4-11.8c8.3,0,12.9,10,7.4,16.2c-1.4,1.6-6.8,4.1-29.2,13.7l-27.5,11.7l-0.9,3.1c-0.5,1.7-1.9,4.6-3.1,6.4l-2.2,3.1l49.3-0.1c48.7-0.2,49.3-0.2,51-1.5c3.9-2.9,4.3-3.9,4.2-12.8c-0.2-16.5-4.1-31.6-12.3-48.2c-9.1-18.2-21-32.1-37.9-44.2c-7.2-5.2-22.2-12.7-30.8-15.5C149.5,64.7,131.6,62.9,115.4,64.5z M131.4,95c1.5,1.5,1.5,1.6,1.5,13.3c0,11.7,0,11.8-1.5,13.3c-0.9,1-2.2,1.5-3.4,1.5c-1.2,0-2.5-0.6-3.4-1.5c-1.5-1.5-1.5-1.6-1.5-13.3c0-11.7,0-11.8,1.5-13.3c0.9-1,2.2-1.5,3.4-1.5C129.2,93.4,130.5,94,131.4,95z M83.2,125.4c6.8,6.8,7.8,8.1,7.8,9.9c0,2.7-2.3,5-5,5c-1.7,0-3.1-1-9.7-7.6c-4.2-4.1-8-8.3-8.4-9.3c-1.7-3.8,2-7.8,5.9-6.4C74.7,117.3,78.9,121.1,83.2,125.4z M187.8,118.7c0.4,0.6,0.6,2,0.6,3.1c0,1.8-1,3.1-8.2,10.2c-7.2,7.1-8.4,8.2-10.2,8.2c-2.7,0-5.1-2.3-5.1-5c0-1.7,1-3.1,7.6-9.7c4.1-4.2,8.3-8,9.3-8.4C184,116.2,186.9,117,187.8,118.7z M72.2,173.9c1,0.9,1.5,2.2,1.5,3.4c0,1.2-0.6,2.5-1.5,3.4c-1.5,1.5-1.6,1.5-13.3,1.5c-11.7,0-11.8,0-13.3-1.5c-1-0.9-1.5-2.2-1.5-3.4c0-1.2,0.6-2.5,1.5-3.4c1.5-1.5,1.6-1.5,13.3-1.5C70.6,172.3,70.7,172.3,72.2,173.9z M210.3,173.9c1,0.9,1.5,2.2,1.5,3.4c0,1.2-0.6,2.5-1.5,3.4c-1.5,1.5-1.6,1.5-13.3,1.5c-11.7,0-11.8,0-13.3-1.5c-1-0.9-1.5-2.2-1.5-3.4c0-1.2,0.6-2.5,1.5-3.4c1.5-1.5,1.6-1.5,13.3-1.5C208.7,172.3,208.8,172.3,210.3,173.9z"/></g></g></g>
</svg>