<svg width="29" height="29" viewBox="0 0 29 29" fill="none" xmlns="http://www.w3.org/2000/svg">
<path d="M9.72702 17.7867L8.51869 16.5783L4.77286 17.7746H4.65202C4.59318 17.7779 4.53429 17.7688 4.47915 17.748C4.42401 17.7272 4.37382 17.6951 4.33181 17.6537L3.45577 16.7898C3.38501 16.7225 3.33972 16.6327 3.32761 16.5358C3.31549 16.4389 3.3373 16.3408 3.38931 16.2581L4.41036 14.5C5.04278 13.4177 5.92507 12.5025 6.9835 11.8308C8.04192 11.1592 9.24573 10.7507 10.4943 10.6394L11.9987 10.5065M11.9987 10.5065C12.8727 9.46729 13.6783 8.57715 14.4154 7.83604C15.8139 6.35465 17.4833 5.1549 19.3333 4.30166C21.2188 3.59638 23.2239 3.26596 25.236 3.32896C25.3576 3.33064 25.4741 3.3781 25.5622 3.46187C25.6041 3.5003 25.6375 3.54699 25.6604 3.59898C25.6832 3.65098 25.6951 3.70715 25.6951 3.76396C25.7359 5.78203 25.3766 7.7882 24.6379 9.66666C23.8065 11.522 22.6202 13.1968 21.1458 14.5967C20.4026 15.3458 19.5085 16.1494 18.4754 17.0133L18.3424 18.5117C18.234 19.7596 17.8287 20.9636 17.1602 22.023C16.4918 23.0824 15.5797 23.9665 14.4999 24.6017L12.7539 25.6227C12.6848 25.6586 12.6082 25.6772 12.5304 25.6771C12.4147 25.6747 12.3036 25.632 12.2162 25.5562L11.3401 24.6742C11.2836 24.6201 11.2434 24.5512 11.2242 24.4753C11.2049 24.3994 11.2074 24.3197 11.2314 24.2452L12.3974 20.4571M11.9987 10.5065L8.5489 16.6085M12.3974 20.4571L11.2254 19.285M12.3974 20.4571L18.4995 17.0133M22.6079 8.88125C22.6095 8.22533 22.3509 7.59554 21.8887 7.13004C21.4266 6.66454 20.7988 6.40132 20.1429 6.39812C19.8069 6.38153 19.471 6.43339 19.1557 6.55054C18.8403 6.66769 18.5521 6.84769 18.3084 7.07962C18.0647 7.31155 17.8708 7.59058 17.7382 7.89976C17.6056 8.20894 17.5373 8.54183 17.5373 8.87823C17.5373 9.21463 17.6056 9.54752 17.7382 9.8567C17.8708 10.1659 18.0647 10.4449 18.3084 10.6768C18.5521 10.9088 18.8403 11.0888 19.1557 11.2059C19.471 11.3231 19.8069 11.3749 20.1429 11.3583C20.794 11.3586 21.4191 11.1025 21.8829 10.6454C22.116 10.4154 22.2999 10.1404 22.4235 9.83716C22.5471 9.5339 22.6078 9.20868 22.6018 8.88125H22.6079Z" stroke="white" stroke-width="1.04167" strokeLinecap="round" strokeLinejoin="round"/>
<path d="M7.85413 21.1458C10.2708 20.6988 14.5604 16.675 15.0618 13.9381C12.3068 14.4638 8.28308 18.7292 7.85413 21.1458Z" stroke="white" stroke-width="1.04167" strokeLinecap="round" strokeLinejoin="round"/>
</svg>
