<svg width="25" height="24" viewBox="0 0 25 24" fill="none" xmlns="http://www.w3.org/2000/svg">
<circle cx="12.5" cy="12" r="12" fill="#F9E160"/>
<g filter="url(#filter0_i_2025_38)">
<circle cx="12.5" cy="12" r="9.9661" fill="#FE881C" fill-opacity="0.72"/>
</g>
<g filter="url(#filter1_d_2025_38)">
<path d="M12.0398 18.7119V17.3622C10.5885 17.2522 9.45379 16.7323 8.63562 15.8025L9.58529 14.4529C10.2574 15.1927 11.0755 15.6376 12.0398 15.7875V12.8932C11.582 12.7732 11.2022 12.6583 10.9002 12.5483C10.5983 12.4283 10.2817 12.2634 9.95054 12.0534C9.61938 11.8335 9.36613 11.5535 9.19081 11.2136C9.02523 10.8637 8.94244 10.4538 8.94244 9.9839C8.94244 9.21408 9.2249 8.55924 9.78983 8.01936C10.3548 7.47949 11.1047 7.16956 12.0398 7.08958V5.69491H13.2086V7.10458C14.3872 7.23455 15.3661 7.68444 16.1453 8.45426L15.1664 9.75896C14.6307 9.21908 13.9781 8.86916 13.2086 8.7092V11.2886C13.569 11.3886 13.8758 11.4836 14.1291 11.5735C14.3823 11.6635 14.6599 11.7935 14.9619 11.9634C15.2735 12.1234 15.5219 12.3034 15.707 12.5033C15.892 12.6933 16.0479 12.9432 16.1745 13.2531C16.3011 13.5631 16.3644 13.913 16.3644 14.3029C16.3644 15.1227 16.0966 15.8175 15.5609 16.3874C15.0349 16.9473 14.2508 17.2722 13.2086 17.3622V18.7119H12.0398ZM14.2752 15.3077C14.5089 15.0577 14.6258 14.7778 14.6258 14.4679C14.6258 14.1579 14.5041 13.908 14.2606 13.718C14.0171 13.5181 13.6664 13.3481 13.2086 13.2081V15.8025C13.6859 15.7226 14.0414 15.5576 14.2752 15.3077ZM10.6957 9.86393C10.6957 10.3438 11.1437 10.7137 12.0398 10.9737V8.63422C11.621 8.67421 11.2898 8.80918 11.0463 9.03912C10.8125 9.25907 10.6957 9.53401 10.6957 9.86393Z" fill="#FFEA7C"/>
</g>
<defs>
<filter id="filter0_i_2025_38" x="2.53387" y="2.0339" width="19.9322" height="20.6441" filterUnits="userSpaceOnUse" color-interpolation-filters="sRGB">
<feFlood flood-opacity="0" result="BackgroundImageFix"/>
<feBlend mode="normal" in="SourceGraphic" in2="BackgroundImageFix" result="shape"/>
<feColorMatrix in="SourceAlpha" type="matrix" values="0 0 0 0 0 0 0 0 0 0 0 0 0 0 0 0 0 0 127 0" result="hardAlpha"/>
<feMorphology radius="0.711864" operator="erode" in="SourceAlpha" result="effect1_innerShadow_2025_38"/>
<feOffset dy="0.711864"/>
<feComposite in2="hardAlpha" operator="arithmetic" k2="-1" k3="1"/>
<feColorMatrix type="matrix" values="0 0 0 0 0 0 0 0 0 0 0 0 0 0 0 0 0 0 0.25 0"/>
<feBlend mode="normal" in2="shape" result="effect1_innerShadow_2025_38"/>
</filter>
<filter id="filter1_d_2025_38" x="8.63562" y="5.69491" width="7.72882" height="13.7288" filterUnits="userSpaceOnUse" color-interpolation-filters="sRGB">
<feFlood flood-opacity="0" result="BackgroundImageFix"/>
<feColorMatrix in="SourceAlpha" type="matrix" values="0 0 0 0 0 0 0 0 0 0 0 0 0 0 0 0 0 0 127 0" result="hardAlpha"/>
<feOffset dy="0.711864"/>
<feComposite in2="hardAlpha" operator="out"/>
<feColorMatrix type="matrix" values="0 0 0 0 0 0 0 0 0 0 0 0 0 0 0 0 0 0 0.25 0"/>
<feBlend mode="normal" in2="BackgroundImageFix" result="effect1_dropShadow_2025_38"/>
<feBlend mode="normal" in="SourceGraphic" in2="effect1_dropShadow_2025_38" result="shape"/>
</filter>
</defs>
</svg>
