<svg width="14" height="14" viewBox="0 0 14 14" fill="none" xmlns="http://www.w3.org/2000/svg">
<path fill-rule="evenodd" clip-rule="evenodd" d="M10.5 5.95H7.8309L9.422 2.2379C9.44483 2.18464 9.45408 2.12654 9.44892 2.06883C9.44376 2.01111 9.42435 1.95558 9.39243 1.90721C9.36051 1.85885 9.31708 1.81916 9.26604 1.79172C9.215 1.76429 9.15795 1.74995 9.1 1.75H5.6C5.53146 1.74994 5.4644 1.77001 5.40716 1.80771C5.34992 1.84542 5.30501 1.8991 5.278 1.9621L3.178 6.8621C3.15517 6.91536 3.14592 6.97346 3.15108 7.03117C3.15624 7.08889 3.17565 7.14442 3.20757 7.19279C3.23949 7.24115 3.28292 7.28084 3.33396 7.30828C3.385 7.33571 3.44205 7.35005 3.5 7.35H5.2318L3.1752 12.4698C3.0352 12.8177 3.4671 13.1124 3.7401 12.8548L7.2569 9.5347L10.7275 6.566C10.7819 6.5195 10.8207 6.45745 10.8387 6.38821C10.8568 6.31897 10.8531 6.24586 10.8284 6.17874C10.8036 6.11163 10.7588 6.05372 10.7001 6.01282C10.6414 5.97192 10.5715 5.94999 10.5 5.95ZM7.3003 6.65H9.5522L6.7886 9.0146L4.4191 11.2511L6.0746 7.1302C6.09588 7.0771 6.10382 7.01959 6.09773 6.9627C6.09163 6.90582 6.07168 6.8513 6.03963 6.80391C6.00758 6.75652 5.9644 6.71771 5.91387 6.69088C5.86334 6.66405 5.80701 6.65001 5.7498 6.65H4.0306L5.831 2.45H8.5694L6.9783 6.1621C6.95547 6.21536 6.94622 6.27346 6.95138 6.33117C6.95654 6.38889 6.97595 6.44442 7.00787 6.49279C7.03979 6.54115 7.08322 6.58084 7.13426 6.60828C7.1853 6.63572 7.24235 6.65005 7.3003 6.65Z" fill="#EA5384"/>
</svg>
