<svg width="18" height="18" viewBox="0 0 18 18" fill="none" xmlns="http://www.w3.org/2000/svg">
<path d="M10.332 12.2957C10.2997 12.2637 10.2561 12.2458 10.2106 12.2458C10.1652 12.2458 10.1215 12.2637 10.0892 12.2957L7.59275 14.7922C6.43689 15.948 4.48611 16.0705 3.20994 14.7922C1.93162 13.5139 2.05408 11.5652 3.20994 10.4094L5.70642 7.91289C5.77302 7.84629 5.77302 7.73672 5.70642 7.67012L4.85134 6.81504C4.81904 6.78305 4.77542 6.76511 4.72996 6.76511C4.6845 6.76511 4.64087 6.78305 4.60857 6.81504L2.11208 9.31152C0.294507 11.1291 0.294507 14.0703 2.11208 15.8857C3.92966 17.7012 6.87087 17.7033 8.6863 15.8857L11.1828 13.3893C11.2494 13.3227 11.2494 13.2131 11.1828 13.1465L10.332 12.2957ZM15.8879 2.11211C14.0703 0.29453 11.1291 0.29453 9.31365 2.11211L6.81502 4.60859C6.78303 4.6409 6.76509 4.68452 6.76509 4.72998C6.76509 4.77544 6.78303 4.81906 6.81502 4.85137L7.66795 5.7043C7.73455 5.7709 7.84412 5.7709 7.91072 5.7043L10.4072 3.20781C11.5631 2.05195 13.5138 1.92949 14.79 3.20781C16.0683 4.48613 15.9459 6.43476 14.79 7.59062L12.2935 10.0871C12.2615 10.1194 12.2436 10.163 12.2436 10.2085C12.2436 10.254 12.2615 10.2976 12.2935 10.3299L13.1486 11.185C13.2152 11.2516 13.3248 11.2516 13.3914 11.185L15.8879 8.68848C17.7033 6.8709 17.7033 3.92969 15.8879 2.11211ZM11.1076 5.99863C11.0753 5.96664 11.0317 5.9487 10.9862 5.9487C10.9407 5.9487 10.8971 5.96664 10.8648 5.99863L5.99861 10.8627C5.96662 10.895 5.94868 10.9386 5.94868 10.9841C5.94868 11.0295 5.96662 11.0732 5.99861 11.1055L6.84939 11.9562C6.91599 12.0228 7.02556 12.0228 7.09216 11.9562L11.9562 7.09219C12.0228 7.02559 12.0228 6.91601 11.9562 6.84941L11.1076 5.99863Z" fill="white"/>
</svg>
