<svg width="19" height="19" viewBox="0 0 19 19" fill="none" xmlns="http://www.w3.org/2000/svg">
<path d="M18.735 1.42007C18.7128 1.05438 18.5575 0.709463 18.2984 0.450401C18.0394 0.191339 17.6945 0.0360463 17.3288 0.0138229C16.1494 -0.0564896 13.1353 0.0513228 10.6341 2.55164L10.1888 3.00257H4.72033C4.52259 3.00146 4.3266 3.03967 4.14377 3.115C3.96093 3.19032 3.7949 3.30125 3.65533 3.44132L0.439701 6.65882C0.242496 6.85589 0.104115 7.10403 0.0400901 7.37537C-0.0239351 7.64671 -0.0110716 7.93053 0.0772373 8.19497C0.165546 8.45941 0.325805 8.69401 0.540029 8.87243C0.754253 9.05085 1.01396 9.16605 1.29001 9.20507L4.89658 9.70851L9.04126 13.8532L9.5447 17.4616C9.58342 17.7377 9.69858 17.9974 9.87717 18.2115C10.0558 18.4255 10.2907 18.5853 10.5553 18.6729C10.7095 18.7244 10.8709 18.7507 11.0335 18.7507C11.2302 18.7511 11.4252 18.7125 11.607 18.6372C11.7888 18.5619 11.9539 18.4514 12.0928 18.312L15.3103 15.0963C15.4504 14.9568 15.5613 14.7907 15.6367 14.6079C15.712 14.4251 15.7502 14.2291 15.7491 14.0313V8.56289L16.1963 8.1157C18.6975 5.61445 18.8053 2.60039 18.735 1.42007ZM4.72033 4.50257H8.68876L4.98283 8.20757L1.49908 7.72195L4.72033 4.50257ZM11.6963 3.61664C12.4169 2.89151 13.2841 2.32852 14.2397 1.96525C15.1953 1.60198 16.2174 1.4468 17.2378 1.51007C17.3035 2.53099 17.15 3.55415 16.7874 4.51079C16.4249 5.46743 15.8618 6.33538 15.136 7.05632L9.74908 12.4413L6.31033 9.00257L11.6963 3.61664ZM14.2491 14.0313L11.0306 17.2526L10.5441 13.7679L14.2491 10.0629V14.0313ZM7.29658 14.9219C6.8747 15.8463 5.46376 18.0026 1.49908 18.0026C1.30016 18.0026 1.1094 17.9236 0.968746 17.7829C0.828094 17.6423 0.749076 17.4515 0.749076 17.2526C0.749076 13.2879 2.90533 11.8769 3.8297 11.4541C3.91933 11.4133 4.01613 11.3904 4.11458 11.387C4.21302 11.3835 4.31119 11.3995 4.40346 11.4339C4.49574 11.4684 4.58033 11.5207 4.65239 11.5879C4.72445 11.6551 4.78258 11.7358 4.82345 11.8254C4.86433 11.915 4.88715 12.0118 4.89061 12.1103C4.89407 12.2087 4.87811 12.3069 4.84364 12.3992C4.80917 12.4914 4.75685 12.576 4.68969 12.6481C4.62253 12.7201 4.54183 12.7783 4.4522 12.8191C3.84939 13.0938 2.51908 13.9779 2.2847 16.4669C4.77376 16.2326 5.6597 14.9023 5.93251 14.2994C5.97339 14.2098 6.03152 14.1291 6.10358 14.062C6.17564 13.9948 6.26022 13.9425 6.3525 13.908C6.44478 13.8735 6.54294 13.8576 6.64139 13.861C6.73984 13.8645 6.83664 13.8873 6.92626 13.9282C7.01589 13.9691 7.09659 14.0272 7.16375 14.0993C7.23092 14.1713 7.28323 14.2559 7.3177 14.3482C7.35217 14.4405 7.36814 14.5386 7.36467 14.6371C7.36121 14.7355 7.33839 14.8323 7.29751 14.9219H7.29658Z" fill="white"/>
</svg>
