<svg width="25" height="25" viewBox="0 0 25 25" fill="none" xmlns="http://www.w3.org/2000/svg">
<path d="M5.66401 7.42188C5.66401 5.91967 6.26076 4.479 7.32298 3.41678C8.38519 2.35456 9.82587 1.75781 11.3281 1.75781C12.8303 1.75781 14.271 2.35456 15.3332 3.41678C16.3954 4.479 16.9921 5.91967 16.9921 7.42188C16.9921 7.57728 16.9304 7.72631 16.8205 7.83619C16.7106 7.94608 16.5616 8.00781 16.4062 8.00781C16.2508 8.00781 16.1018 7.94608 15.9919 7.83619C15.882 7.72631 15.8203 7.57728 15.8203 7.42188C15.8203 6.23047 15.347 5.08787 14.5045 4.24542C13.6621 3.40297 12.5195 2.92969 11.3281 2.92969C10.1367 2.92969 8.99407 3.40297 8.15162 4.24542C7.30917 5.08787 6.83589 6.23047 6.83589 7.42188C6.83589 7.57728 6.77415 7.72631 6.66427 7.83619C6.55438 7.94608 6.40535 8.00781 6.24995 8.00781C6.09455 8.00781 5.94551 7.94608 5.83563 7.83619C5.72574 7.72631 5.66401 7.57728 5.66401 7.42188ZM19.1406 11.9141C18.6323 11.9136 18.1358 12.0664 17.7158 12.3525C17.6289 11.9524 17.4465 11.5793 17.1843 11.2649C16.922 10.9505 16.5876 10.7042 16.2095 10.547C15.8315 10.3897 15.421 10.3263 15.0132 10.362C14.6053 10.3977 14.2121 10.5315 13.8671 10.752V7.42188C13.8671 6.74847 13.5996 6.10265 13.1235 5.62649C12.6473 5.15032 12.0015 4.88281 11.3281 4.88281C10.6547 4.88281 10.0089 5.15032 9.53268 5.62649C9.05652 6.10265 8.78901 6.74847 8.78901 7.42188V15.918L8.05366 14.7363C7.71527 14.1536 7.15925 13.7291 6.50791 13.5563C5.85657 13.3835 5.16327 13.4766 4.58051 13.8149C3.99776 14.1533 3.5733 14.7093 3.40051 15.3607C3.22772 16.012 3.32074 16.7053 3.65913 17.2881L6.52241 22.1709C6.60266 22.3008 6.73045 22.3943 6.87857 22.4314C7.02669 22.4685 7.18345 22.4463 7.31545 22.3695C7.44745 22.2927 7.54427 22.1675 7.5853 22.0204C7.62633 21.8733 7.60832 21.716 7.5351 21.582L4.67475 16.6992C4.49345 16.3852 4.44433 16.012 4.53819 15.6617C4.63205 15.3115 4.8612 15.0128 5.17524 14.8315C5.48928 14.6502 5.86248 14.6011 6.21273 14.695C6.56299 14.7888 6.86162 15.018 7.04292 15.332C7.04562 15.3379 7.04889 15.3434 7.05268 15.3486L8.8769 18.2783C8.94406 18.3867 9.04474 18.4702 9.16366 18.5162C9.28258 18.5622 9.41325 18.5681 9.53585 18.5331C9.65845 18.4981 9.76628 18.424 9.84298 18.3222C9.91969 18.2203 9.96108 18.0962 9.96089 17.9688V7.42188C9.96089 7.05927 10.1049 6.71152 10.3613 6.45513C10.6177 6.19873 10.9655 6.05469 11.3281 6.05469C11.6907 6.05469 12.0384 6.19873 12.2948 6.45513C12.5512 6.71152 12.6953 7.05927 12.6953 7.42188V14.0625C12.6953 14.2179 12.757 14.3669 12.8669 14.4768C12.9768 14.5867 13.1258 14.6484 13.2812 14.6484C13.4366 14.6484 13.5856 14.5867 13.6955 14.4768C13.8054 14.3669 13.8671 14.2179 13.8671 14.0625V12.8906C13.8671 12.528 14.0112 12.1803 14.2676 11.9239C14.524 11.6675 14.8717 11.5234 15.2343 11.5234C15.5969 11.5234 15.9447 11.6675 16.2011 11.9239C16.4575 12.1803 16.6015 12.528 16.6015 12.8906V14.8438C16.6015 14.9992 16.6632 15.1482 16.7731 15.2581C16.883 15.368 17.032 15.4297 17.1874 15.4297C17.3428 15.4297 17.4919 15.368 17.6018 15.2581C17.7117 15.1482 17.7734 14.9992 17.7734 14.8438V14.4531C17.7734 14.0905 17.9174 13.7428 18.1738 13.4864C18.4302 13.23 18.778 13.0859 19.1406 13.0859C19.5032 13.0859 19.8509 13.23 20.1073 13.4864C20.3637 13.7428 20.5078 14.0905 20.5078 14.4531V17.9688C20.5078 20.1299 19.7949 21.5996 19.788 21.6133C19.7201 21.7519 19.7096 21.9116 19.7588 22.0579C19.808 22.2042 19.9129 22.3251 20.0507 22.3945C20.1313 22.4374 20.2211 22.4602 20.3124 22.4609C20.4215 22.4612 20.5285 22.4309 20.6213 22.3736C20.7141 22.3164 20.7891 22.2343 20.8378 22.1367C20.872 22.0684 21.6806 20.4229 21.6806 17.9688V14.4531C21.6806 14.1196 21.6149 13.7894 21.4872 13.4812C21.3596 13.1731 21.1725 12.8932 20.9366 12.6574C20.7007 12.4216 20.4207 12.2346 20.1125 12.1071C19.8044 11.9795 19.4741 11.9139 19.1406 11.9141Z" fill="white"/>
</svg>
