<svg width="23" height="23" viewBox="0 0 23 23" fill="none" xmlns="http://www.w3.org/2000/svg">
<path d="M15.4531 6.46875C15.277 8.84377 13.4765 10.7812 11.5 10.7812C9.52341 10.7812 7.7198 8.84422 7.54685 6.46875C7.36716 3.99805 9.11912 2.15625 11.5 2.15625C13.8808 2.15625 15.6328 4.04297 15.4531 6.46875Z" stroke="white" stroke-width="1.13" strokeLinecap="round" strokeLinejoin="round"/>
<path d="M11.5 13.6562C7.59178 13.6562 3.62518 15.8125 2.89116 19.8824C2.80266 20.373 3.08028 20.8438 3.59374 20.8438H19.4062C19.9201 20.8438 20.1978 20.373 20.1093 19.8824C19.3748 15.8125 15.4082 13.6562 11.5 13.6562Z" stroke="white" stroke-width="1.13" stroke-miterlimit="10"/>
<path d="M22.3369 11.41H20.2069V13.57H19.3569V11.41H17.2369V10.64H19.3569V8.47H20.2069V10.64H22.3369V11.41Z" fill="white"/>
</svg>
